<svg width="28" height="28" viewBox="0 0 28 28" fill="none" xmlns="http://www.w3.org/2000/svg">
<path d="M7 0C3.13401 0 0 3.13401 0 7V19.5863C0.84387 19.121 1.63131 18.6831 2.30291 18.307C3.74734 17.3876 5.45189 16.2333 7.10284 14.9999L7.11754 14.9277C7.39529 13.5622 7.73785 11.8781 8.19719 10.2008C8.70011 8.36443 9.35923 6.47259 10.2676 4.97211C10.878 3.96371 11.7408 3.37713 12.6846 3.19977C13.6088 3.02608 14.5319 3.25937 15.2676 3.73667C16.0034 4.21407 16.5938 4.96252 16.8216 5.87661C17.0541 6.80907 16.891 7.84209 16.2404 8.82516C14.5019 11.4522 11.2603 14.0464 8.68438 15.9993C8.6161 16.3277 8.54844 16.6455 8.48301 16.9528C8.17929 18.3794 7.92347 19.5809 7.87555 20.5771C7.84545 21.203 7.90613 21.649 8.03558 21.9606C8.15113 22.2388 8.3331 22.4425 8.66114 22.5889C9.39764 22.9176 10.2136 22.6027 11.1735 21.6177C12.0316 20.7374 12.7409 19.5773 13.2293 18.7785L13.3021 18.6594C13.7877 17.5009 14.4866 16.3216 15.4464 15.5264C16.4676 14.6803 17.7838 14.2797 19.3032 14.7932L19.3141 14.7968L19.3249 14.8008C21.5877 15.6323 22.1057 18.0233 21.7867 19.9896C21.4674 21.9577 20.243 24.0988 18.2805 24.7715C17.0853 25.1811 15.8261 24.841 14.9007 24.2427C13.9511 23.6287 13.4212 22.817 13.1554 22.0063C12.9268 22.2938 12.6832 22.5761 12.4268 22.8392C11.3732 23.9201 9.7717 25.0009 7.94792 24.187C7.20711 23.8563 6.70465 23.3185 6.41947 22.6319C6.14817 21.9788 6.09179 21.237 6.12757 20.4931C6.16938 19.6239 6.34898 18.617 6.56782 17.5511C5.39367 18.3811 4.243 19.147 3.22148 19.7968L3.20081 19.8099L3.17943 19.8219C2.28765 20.3213 1.18899 20.9312 0.0229529 21.571C0.313494 25.1699 3.32625 28 7 28H21C24.866 28 28 24.866 28 21V7C28 3.13401 24.866 0 21 0H7Z" fill="#0A80E8"/>
<path d="M9.88503 10.6631C9.63511 11.5757 9.42077 12.4915 9.2313 13.3626C11.3778 11.658 13.541 9.73315 14.781 7.85938C15.1815 7.25425 15.2286 6.72125 15.1236 6.29986C15.014 5.8601 14.7191 5.46687 14.3151 5.20476C13.911 4.94256 13.4396 4.83851 13.0078 4.91967C12.5954 4.99716 12.1404 5.25759 11.7646 5.87839C10.9818 7.17159 10.3735 8.87936 9.88503 10.6631Z" fill="#0A80E8"/>
<path d="M14.8927 19.3922C15.3279 18.3372 15.8979 17.4249 16.5629 16.8739C17.1819 16.3611 17.8712 16.1602 18.7318 16.4473C19.8172 16.8529 20.3216 18.0921 20.0593 19.7093C19.7964 21.3299 18.8299 22.7332 17.713 23.116C17.1685 23.3027 16.4699 23.1734 15.8509 22.7731C15.0848 22.2777 14.7863 21.5987 14.7027 20.944C14.6142 20.2505 14.7773 19.638 14.8743 19.4337L14.884 19.4132L14.8927 19.3922Z" fill="#0A80E8"/>
</svg>
