<svg width="22" height="22" viewBox="0 0 22 22" fill="none" xmlns="http://www.w3.org/2000/svg">
<path fill-rule="evenodd" clip-rule="evenodd" d="M12.4613 3.04689C13.6647 3.86931 14.8619 4.85949 16.0011 5.99863C17.1402 7.13779 18.1304 8.335 18.9528 9.53846C19.6539 8.16102 20.0753 6.85671 20.2059 5.72514C20.3705 4.29806 20.0673 3.24364 19.4117 2.58802C18.7561 1.93241 17.7017 1.62918 16.2746 1.79383C15.143 1.92439 13.8387 2.34582 12.4613 3.04689ZM19.8682 11.0002C20.8736 9.23503 21.5137 7.47679 21.696 5.89707C21.891 4.2067 21.5672 2.62221 20.4724 1.52736C19.3775 0.432523 17.793 0.108685 16.1027 0.303719C14.523 0.485985 12.7647 1.12609 10.9996 2.13148C9.23448 1.12615 7.4763 0.486088 5.89664 0.303846C4.20631 0.108838 2.62187 0.432686 1.52706 1.5275C0.432228 2.62233 0.108387 4.2068 0.303407 5.89715C0.48566 7.47684 1.12575 9.23505 2.1311 11.0002C1.12583 12.7653 0.485805 14.5234 0.303587 16.103C0.108604 17.7933 0.432459 19.3777 1.52725 20.4725C2.62205 21.5673 4.20645 21.8912 5.89674 21.6962C7.47637 21.514 9.23452 20.8739 10.9996 19.8687C12.7647 20.874 14.5229 21.5141 16.1026 21.6963C17.7929 21.8913 19.3773 21.5675 20.4722 20.4727C21.567 19.3779 21.8908 17.7934 21.6958 16.1031C21.5136 14.5235 20.8735 12.7653 19.8682 11.0002ZM18.119 11.0002C17.282 9.67505 16.2138 8.33268 14.9404 7.05929C13.667 5.78593 12.3247 4.71767 10.9996 3.88075C9.67459 4.71765 8.33231 5.78586 7.05903 7.05915C5.7856 8.33258 4.7173 9.67501 3.88036 11.0002C4.71727 12.3252 5.7855 13.6675 7.05883 14.9409C8.33218 16.2142 9.67452 17.2825 10.9996 18.1194C12.3247 17.2825 13.6672 16.2142 14.9406 14.9407C16.2139 13.6675 17.2821 12.3252 18.119 11.0002ZM12.4613 18.9533C13.6648 18.1308 14.8621 17.1406 16.0013 16.0014C17.1403 14.8623 18.1304 13.6653 18.9528 12.4619C19.6538 13.8393 20.0752 15.1435 20.2057 16.275C20.3703 17.702 20.0671 18.7564 19.4115 19.412C18.7559 20.0676 17.7015 20.3708 16.2745 20.2062C15.143 20.0757 13.8387 19.6543 12.4613 18.9533ZM9.53784 18.9532C8.33444 18.1308 7.13728 17.1407 5.99817 16.0015C4.85908 14.8624 3.86894 13.6653 3.04653 12.4619C2.34558 13.8393 1.92423 15.1435 1.79371 16.2749C1.62909 17.7019 1.93233 18.7563 2.58791 19.4119C3.2435 20.0675 4.29786 20.3707 5.72485 20.2061C6.85632 20.0756 8.16051 19.6542 9.53784 18.9532ZM3.0465 9.53843C3.86895 8.33494 4.85917 7.13769 5.99837 5.99849C7.13743 4.85942 8.33453 3.8693 9.53788 3.04691C8.1605 2.3459 6.85624 1.9245 5.72473 1.79396C4.2977 1.62933 3.24332 1.93256 2.58772 2.58816C1.93211 3.24377 1.62888 4.29817 1.79352 5.72523C1.92407 6.85676 2.34548 8.16104 3.0465 9.53843ZM10.9997 9.25001C10.0332 9.25001 9.24971 10.0335 9.24971 11C9.24971 11.9665 10.0332 12.75 10.9997 12.75C11.9662 12.75 12.7497 11.9665 12.7497 11C12.7497 10.0335 11.9662 9.25001 10.9997 9.25001ZM7.74971 11C7.74971 9.20509 9.20478 7.75001 10.9997 7.75001C12.7946 7.75001 14.2497 9.20509 14.2497 11C14.2497 12.7949 12.7946 14.25 10.9997 14.25C9.20478 14.25 7.74971 12.7949 7.74971 11Z" fill="#858585"/>
</svg>
