<svg width="21" height="20" viewBox="0 0 21 20" fill="none" xmlns="http://www.w3.org/2000/svg">
<path fill-rule="evenodd" clip-rule="evenodd" d="M1.24896 0.292477C0.858196 0.155091 0.430045 0.360497 0.29266 0.751263C0.155274 1.14203 0.36068 1.57018 0.751446 1.70757L1.01266 1.7994C1.68026 2.03412 2.11902 2.18967 2.44186 2.34808C2.74509 2.49686 2.87876 2.61729 2.96682 2.74615C3.05708 2.87824 3.12678 3.05966 3.16611 3.42301C3.20726 3.80322 3.20828 4.29844 3.20828 5.03838V7.76002C3.20828 9.21255 3.22191 10.2599 3.35897 11.0601C3.50529 11.9144 3.79742 12.5261 4.34366 13.1022C4.93752 13.7286 5.69032 14.0013 6.58656 14.1284C7.44479 14.2501 8.53464 14.25 9.88035 14.25L15.2861 14.25C16.0278 14.25 16.6518 14.2501 17.1568 14.1883C17.6925 14.1227 18.1811 13.9794 18.6076 13.6318C19.0341 13.2843 19.2731 12.8347 19.4455 12.3232C19.6079 11.8411 19.7339 11.2299 19.8836 10.5035L20.3925 8.03417L20.3935 8.02958L20.4039 7.97729C20.5686 7.1524 20.7071 6.45851 20.7416 5.9004C20.7777 5.3142 20.711 4.73619 20.3292 4.2398C20.0942 3.93438 19.7639 3.76147 19.4634 3.65589C19.1569 3.5482 18.8103 3.4859 18.4606 3.4468C17.7735 3.37 16.9389 3.37001 16.1203 3.37002L4.66809 3.37002C4.6648 3.33327 4.66124 3.29713 4.6574 3.26159C4.60367 2.76521 4.48725 2.31249 4.20527 1.89985C3.92109 1.48399 3.54324 1.21765 3.10261 1.00145C2.69052 0.799249 2.16689 0.615173 1.55036 0.398441L1.24896 0.292477ZM4.70828 4.87002H16.089C16.9454 4.87002 17.6991 4.87102 18.2939 4.93751C18.5895 4.97055 18.8107 5.01646 18.9661 5.07107C19.0931 5.11571 19.1361 5.15216 19.1423 5.15743C19.1422 5.15732 19.1426 5.15765 19.1423 5.15743C19.2037 5.23884 19.2704 5.38654 19.2444 5.80799C19.217 6.25156 19.1005 6.84382 18.9229 7.73375L18.9225 7.73597L18.4237 10.1561C18.2623 10.9389 18.1537 11.4593 18.024 11.8442C17.9009 12.2095 17.7853 12.367 17.66 12.469C17.5348 12.5711 17.3573 12.6525 16.9746 12.6994C16.5714 12.7487 16.0399 12.75 15.2406 12.75H9.93768C8.5209 12.75 7.53783 12.7483 6.79716 12.6432C6.08235 12.5419 5.70473 12.3576 5.43219 12.0702C5.11202 11.7325 4.93933 11.4018 4.83744 10.8069C4.72628 10.1579 4.70828 9.24906 4.70828 7.76002L4.70828 4.87002Z" fill="#858585"/>
<path fill-rule="evenodd" clip-rule="evenodd" d="M6.5002 19.75C5.25756 19.75 4.2502 18.7427 4.2502 17.5C4.2502 16.2574 5.25756 15.25 6.5002 15.25C7.74285 15.25 8.7502 16.2574 8.7502 17.5C8.7502 18.7427 7.74285 19.75 6.5002 19.75ZM5.7502 17.5C5.7502 17.9142 6.08599 18.25 6.5002 18.25C6.91442 18.25 7.2502 17.9142 7.2502 17.5C7.2502 17.0858 6.91442 16.75 6.5002 16.75C6.08599 16.75 5.7502 17.0858 5.7502 17.5Z" fill="#858585"/>
<path fill-rule="evenodd" clip-rule="evenodd" d="M15.5002 19.7501C14.2576 19.7501 13.2502 18.7427 13.2502 17.5001C13.2502 16.2575 14.2576 15.2501 15.5002 15.2501C16.7428 15.2501 17.7502 16.2575 17.7502 17.5001C17.7502 18.7427 16.7428 19.7501 15.5002 19.7501ZM14.7502 17.5001C14.7502 17.9143 15.086 18.2501 15.5002 18.2501C15.9144 18.2501 16.2502 17.9143 16.2502 17.5001C16.2502 17.0859 15.9144 16.7501 15.5002 16.7501C15.086 16.7501 14.7502 17.0859 14.7502 17.5001Z" fill="#858585"/>
</svg>
