<svg width="22" height="22" viewBox="0 0 22 22" fill="none" xmlns="http://www.w3.org/2000/svg">
<path fill-rule="evenodd" clip-rule="evenodd" d="M13.2544 0.364529C12.1584 0.058591 11.132 0.389318 10.4026 1.05955C9.68445 1.71939 9.25 2.70552 9.25 3.76063V10.4551C9.25 11.7226 10.2775 12.75 11.5449 12.75H18.2394C19.2945 12.75 20.2806 12.3156 20.9405 11.5974C21.6107 10.868 21.9414 9.84161 21.6355 8.74563C20.5034 4.69003 17.31 1.49663 13.2544 0.364529ZM10.75 3.76063C10.75 3.10931 11.0201 2.52918 11.4175 2.16407C11.8035 1.80935 12.3035 1.65643 12.8511 1.8093C16.4013 2.80031 19.1997 5.59875 20.1907 9.14893C20.3436 9.69654 20.1907 10.1965 19.8359 10.5825C19.4708 10.9799 18.8907 11.25 18.2394 11.25H11.5449C11.1059 11.25 10.75 10.8941 10.75 10.4551V3.76063Z" fill="#858585"/>
<path d="M7.67232 3.71555C8.0675 3.59143 8.28724 3.17045 8.16312 2.77527C8.039 2.38009 7.61803 2.16036 7.22285 2.28447C3.18231 3.55353 0.25 7.32793 0.25 11.7892C0.25 17.2904 4.70962 21.75 10.2108 21.75C14.6721 21.75 18.4465 18.8177 19.7155 14.7772C19.8397 14.382 19.6199 13.961 19.2247 13.8369C18.8296 13.7128 18.4086 13.9325 18.2845 14.3277C17.2061 17.761 13.9982 20.25 10.2108 20.25C5.53805 20.25 1.75 16.462 1.75 11.7892C1.75 8.00185 4.23899 4.79389 7.67232 3.71555Z" fill="#858585"/>
</svg>
