<svg width="100" height="40" viewBox="0 0 100 40" fill="none" xmlns="http://www.w3.org/2000/svg">
<path fill-rule="evenodd" clip-rule="evenodd" d="M20 40C36.0044 40 40 36.0044 40 20C40 3.99563 36.0044 0 20 0C3.99563 0 0 3.99563 0 20C0 36.0044 3.99563 40 20 40ZM21.1002 19.0274C21.8329 16.6143 22.5858 14.135 22.8454 11.4942C22.8454 8.11348 20.866 5.49517 17.4021 5.06757C12.701 4.48724 10.0696 7.73118 9.11057 11.4942C6.75498 20.7374 6.9378 32.123 22.015 35C17.9749 29.3196 19.489 24.3334 21.1002 19.0274ZM27.4227 35C29.9507 35 32 32.9293 32 30.375C32 27.8207 29.9507 25.75 27.4227 25.75C24.8947 25.75 22.8454 27.8207 22.8454 30.375C22.8454 32.9293 24.8947 35 27.4227 35Z" fill="#0A80E8"/>
<path d="M57.136 26H48.944V14.8H51.296V23.68H57.136V26ZM57.5284 20.48C57.5284 17.248 59.9124 14.64 63.0484 14.64C66.1844 14.64 68.6164 17.248 68.6164 20.48C68.6164 23.616 66.1844 26.16 63.0484 26.16C59.9124 26.16 57.5284 23.616 57.5284 20.48ZM63.0484 16.96C61.2084 16.96 59.8644 18.512 59.8644 20.48C59.8644 22.352 61.2084 23.84 63.0484 23.84C64.8884 23.84 66.2804 22.352 66.2804 20.48C66.2804 18.512 64.8884 16.96 63.0484 16.96ZM72.4523 26H70.1003V14.8H74.0523C76.5003 14.8 78.1003 16.032 78.1003 18.432C78.1003 20.24 77.1723 21.344 75.6683 21.776L78.5803 26L76.0363 25.984L73.2682 21.984H72.4523V26ZM72.4523 17.12V19.664H74.0363C75.2203 19.664 75.7483 19.248 75.7483 18.368C75.7483 17.648 75.2203 17.12 74.0363 17.12H72.4523ZM79.208 14.8H81.688L84.296 19.104L86.904 14.8H89.368L85.496 21.2V26H83.096V21.2L79.208 14.8Z" fill="#333333"/>
</svg>
